<svg id="Layer_1" data-name="Layer 1" xmlns="http://www.w3.org/2000/svg" viewBox="0 0 162.07 68.15"><defs><style>.cls-1{fill:#6b6968;}.cls-1,.cls-2,.cls-3{fill-rule:evenodd;}.cls-2{fill:#998787;}.cls-3{fill:#010101;}.cls-4{font-size:18.59px;}.cls-4,.cls-6{fill:#231f20;font-family:BernardMT-Condensed, Bernard MT Condensed;}.cls-5,.cls-6{font-size:32.05px;}</style></defs><path class="cls-1" d="M452.2,323.44c-11.81-10.77-8.12-19.95-22-5.76,9.21,9.31,10.36,19.48,22,5.76" transform="translate(-417.52 -304.68)"/><path class="cls-1" d="M446.07,333.17c.69-1.38,9.38-6,5.62-7.58C451,327,442.31,331.54,446.07,333.17Z" transform="translate(-417.52 -304.68)"/><path class="cls-1" d="M431.12,315.14c6.59-5.75,11.16-7.49-.42-10.1C414.6,303,428.75,310.19,431.12,315.14Z" transform="translate(-417.52 -304.68)"/><path class="cls-1" d="M422.36,341.8l15.38-13.42L433,322.91,417.52,336.4C419.14,338.18,420.74,340,422.36,341.8Z" transform="translate(-417.52 -304.68)"/><path class="cls-1" d="M458.72,330.9c-4.43-7.93-7.92,1.26-13.16,4.42l3.5,4Z" transform="translate(-417.52 -304.68)"/><path class="cls-2" d="M563,308.55l-2,.06c-6.08,10-12.67,19.3-24.09,21.67-6.22,1.73-8.44,9.08-4.67,15.51,8.35-8.71,4.16-17.13,20.59-3.2,2.78,1.45-7.6,11.69-7.6,12.8,4.88,1,9.29-.22,11.71-3.47.26-17.88,12-30.39,22.61-43.67C574.05,308.29,568.52,308.37,563,308.55Z" transform="translate(-417.52 -304.68)"/><path class="cls-3" d="M444.62,312.74c.69.1,4.78,7.23,5.61,4.73C449.54,317.38,445.45,310.24,444.62,312.74Z" transform="translate(-417.52 -304.68)"/><path class="cls-3" d="M442.08,320.61a.9.9,0,0,0-1.79-.1C440.17,321.67,442,321.77,442.08,320.61Z" transform="translate(-417.52 -304.68)"/><path class="cls-3" d="M442.86,319.09c1.89,2.11-1.53,5.09-3.36,2.93S441,316.94,442.86,319.09Z" transform="translate(-417.52 -304.68)"/><path class="cls-3" d="M551.12,325.44c2.79-3.95,11,2.14,8.07,6C556.4,335.36,548.16,329.26,551.12,325.44Z" transform="translate(-417.52 -304.68)"/><text class="cls-4" transform="translate(15.57 57.4)">SER<tspan class="cls-5" x="24.78" y="0">VENEA</tspan></text><text class="cls-6" transform="matrix(0.94, 0.35, -0.35, 0.94, 110.93, 55.28)">R</text></svg>